<?xml version="1.0" standalone="no"?>
<!DOCTYPE svg PUBLIC "-//W3C//DTD SVG 20010904//EN"
 "http://www.w3.org/TR/2001/REC-SVG-20010904/DTD/svg10.dtd">
<svg version="1.0" xmlns="http://www.w3.org/2000/svg"
 width="1536.000000pt" height="1536.000000pt" viewBox="0 0 1536.000000 1536.000000"
 preserveAspectRatio="xMidYMid meet">
<metadata>
Created by potrace 1.14, written by Peter Selinger 2001-2017
</metadata>
<g transform="translate(0.000000,1536.000000) scale(0.100000,-0.100000)"
fill="#000000" stroke="none">
<path d="M4508 12840 c-287 -4 -340 -7 -353 -21 -24 -24 -2 -162 30 -187 52
-41 667 -72 721 -37 16 10 25 35 37 97 24 117 22 136 -9 148 -14 6 -40 9 -57
8 -18 -1 -184 -5 -369 -8z"/>
<path d="M5088 12835 c-33 -18 -37 -30 -46 -140 -12 -133 -17 -130 205 -130
199 0 226 5 249 40 15 22 15 31 -1 107 -9 46 -22 94 -28 108 l-12 25 -170 2
c-134 2 -176 -1 -197 -12z"/>
<path d="M5715 12823 c-135 -5 -125 6 -125 -138 0 -68 4 -126 8 -129 19 -11
413 -18 426 -7 10 9 12 39 9 128 -2 63 -6 119 -9 124 -2 5 -21 13 -42 19 -35
9 -81 10 -267 3z"/>
<path d="M4190 12480 c-32 -34 -32 -34 -25 -114 4 -45 9 -84 12 -89 15 -26 71
-37 210 -43 187 -8 185 -10 191 136 5 129 9 127 -200 136 l-157 7 -31 -33z"/>
<path d="M4726 12480 c-16 -5 -33 -15 -37 -22 -16 -24 -9 -131 10 -173 23 -51
42 -67 116 -102 51 -23 76 -28 165 -31 123 -4 427 21 458 37 26 14 34 65 30
176 -4 108 -4 108 -218 101 -91 -3 -212 -2 -270 4 -202 18 -225 19 -254 10z"/>
<path d="M5584 12419 c-17 -19 -19 -36 -18 -142 1 -105 4 -122 20 -135 27 -20
406 -10 440 13 22 14 22 19 19 126 -2 83 -7 116 -19 127 -22 22 -93 31 -267
31 -146 1 -157 0 -175 -20z"/>
<path d="M4190 12142 c-23 -19 -25 -26 -22 -89 3 -92 31 -253 48 -280 17 -26
25 -28 262 -53 200 -21 427 -26 451 -11 8 5 19 45 27 98 29 190 11 276 -64
306 -73 29 -163 38 -422 44 -246 5 -256 5 -280 -15z"/>
<path d="M5065 12070 c-18 -20 -20 -36 -20 -154 1 -167 7 -201 43 -214 15 -6
96 -12 181 -15 148 -4 154 -3 180 19 26 22 26 24 26 161 0 76 -3 150 -7 165
-11 38 -45 46 -225 54 -155 6 -158 6 -178 -16z"/>
<path d="M5645 12049 c-21 -5 -50 -20 -63 -32 -24 -22 -24 -23 -19 -177 5
-133 9 -157 24 -168 25 -18 369 -11 400 9 34 21 63 137 63 251 0 131 4 128
-205 127 -88 -1 -178 -5 -200 -10z"/>
<path d="M4266 11630 c-52 -5 -87 -14 -105 -27 -65 -48 -213 -292 -227 -375
-5 -30 -2 -38 14 -47 12 -6 122 -13 269 -17 201 -5 251 -4 266 7 11 9 31 69
57 174 56 226 60 250 43 275 -13 18 -24 20 -126 19 -62 -1 -147 -5 -191 -9z"/>
<path d="M4754 11597 c-32 -15 -59 -38 -72 -59 -22 -35 -82 -295 -82 -354 0
-50 26 -62 170 -74 69 -6 269 -26 445 -45 338 -37 391 -40 414 -26 21 13 8
106 -29 215 -45 130 -139 308 -170 323 -24 11 -238 27 -505 39 -113 5 -123 4
-171 -19z"/>
<path d="M5622 11405 l-34 -15 20 -27 c22 -32 143 -229 275 -448 49 -82 101
-168 115 -190 37 -58 62 -99 124 -200 31 -49 100 -162 154 -250 54 -88 127
-207 162 -265 35 -57 81 -129 101 -159 39 -58 87 -134 121 -191 11 -19 52 -84
90 -145 39 -60 84 -137 101 -170 34 -65 54 -98 239 -400 68 -110 135 -220 150
-245 15 -25 64 -106 110 -180 137 -223 271 -442 300 -490 15 -25 56 -92 92
-150 35 -58 80 -130 98 -160 19 -30 37 -57 41 -60 3 -3 14 -21 24 -40 10 -19
21 -37 24 -40 4 -3 24 -36 45 -73 60 -108 165 -278 204 -329 l36 -48 2716 1
c2451 0 2747 2 3042 18 180 9 330 19 333 22 2 3 -367 532 -821 1175 -833 1179
-1079 1527 -1175 1664 -29 41 -85 120 -124 175 -39 55 -94 134 -124 175 -29
41 -206 293 -395 560 l-342 485 -279 6 c-154 4 -1430 7 -2835 7 -2208 1 -2560
-1 -2588 -13z m1520 -92 c22 -25 34 -53 41 -90 l7 -33 -184 0 c-100 0 -185 -3
-189 -6 -3 -3 14 -38 37 -77 64 -107 156 -257 181 -297 113 -176 216 -356 213
-374 -3 -19 -10 -21 -84 -24 -75 -3 -84 -1 -111 22 -17 14 -64 81 -105 148
-41 68 -119 195 -173 283 -143 234 -155 254 -155 270 0 7 -7 21 -16 29 -13 14
-48 16 -229 16 l-214 0 -36 55 c-19 31 -35 57 -35 59 0 17 89 22 460 26 234 3
459 6 501 8 62 2 79 -1 91 -15z m287 -99 c15 -9 62 -73 110 -150 46 -74 91
-139 101 -144 18 -10 500 -15 500 -5 0 5 -158 265 -172 282 -14 18 30 33 95
33 66 0 104 -23 144 -86 31 -50 370 -603 405 -661 l20 -33 -27 -10 c-38 -14
-112 -12 -143 4 -39 20 -62 49 -127 156 -31 52 -68 107 -83 123 l-26 27 -248
0 -248 0 90 -147 c63 -103 87 -150 79 -158 -5 -5 -41 -10 -79 -10 -54 0 -75 4
-97 21 -25 19 -95 124 -232 349 -171 283 -216 353 -243 382 l-31 32 59 4 c32
2 74 4 92 5 19 1 46 -5 61 -14z m1482 -8 c257 -60 419 -166 419 -274 0 -38
-35 -89 -87 -127 -23 -16 -42 -32 -42 -35 0 -3 98 -77 219 -165 204 -150 217
-161 192 -168 -40 -12 -177 0 -213 18 -28 15 -72 46 -264 190 -128 96 -136 99
-269 103 -65 3 -116 0 -114 -4 3 -5 44 -73 91 -151 54 -88 82 -145 76 -149 -6
-3 -40 -9 -74 -12 -99 -7 -109 3 -254 240 -68 112 -134 219 -146 238 -95 147
-176 293 -171 306 6 14 38 16 289 11 204 -4 300 -10 348 -21z m939 13 c160
-25 337 -99 412 -171 37 -36 188 -270 188 -291 0 -4 -157 -7 -350 -7 -233 0
-350 -3 -350 -10 0 -6 20 -30 43 -54 62 -61 136 -88 261 -94 123 -6 199 10
244 49 28 25 41 29 90 29 31 0 73 -5 93 -10 31 -9 38 -16 43 -44 9 -47 -5 -77
-50 -108 -57 -39 -99 -55 -189 -68 -209 -32 -502 43 -631 161 -47 44 -118 147
-227 330 -85 144 -77 201 34 249 105 45 258 60 389 39z m1012 -4 c102 -18 223
-57 299 -97 78 -41 135 -104 217 -240 l71 -118 -355 0 c-194 0 -354 -2 -354
-5 0 -3 11 -22 24 -43 46 -73 183 -125 331 -126 86 -1 95 1 169 38 63 32 93
40 151 44 64 4 75 2 94 -17 56 -56 -1 -153 -109 -185 -149 -45 -297 -44 -468
0 -186 48 -303 124 -371 240 -19 33 -44 75 -56 94 -136 216 -140 223 -140 268
0 39 5 48 38 77 83 72 277 102 459 70z m-3895 -997 c14 -11 194 -300 384 -617
72 -120 57 -115 357 -121 145 -3 264 -9 272 -15 9 -5 34 -41 58 -80 37 -62 40
-71 24 -77 -9 -4 -171 -7 -359 -7 -292 -1 -349 1 -383 15 -34 14 -49 31 -108
127 -463 749 -472 764 -472 777 0 19 203 17 227 -2z m911 -102 c37 -20 60 -47
124 -151 30 -49 109 -178 175 -285 219 -356 207 -333 177 -344 -9 -3 -45 -6
-81 -6 -61 0 -68 2 -97 33 -17 18 -49 62 -70 98 -22 35 -93 152 -159 259 -189
307 -224 364 -231 377 -15 28 116 43 162 19z m1084 -6 c14 -7 34 -29 45 -49
11 -20 28 -49 37 -64 l18 -27 -176 0 c-97 0 -176 -2 -176 -4 0 -4 79 -134 240
-396 114 -185 133 -220 125 -228 -3 -4 -39 -8 -79 -10 -66 -4 -75 -2 -103 22
-28 23 -106 144 -313 484 -34 56 -72 109 -83 117 -17 12 -56 15 -175 15 -86 0
-162 5 -173 10 -10 6 -37 39 -58 73 l-40 62 377 6 c432 6 498 5 534 -11z
m1013 -4 c19 -12 85 -114 85 -131 0 -3 -78 -5 -174 -5 l-175 0 121 -197 c66
-109 144 -236 173 -283 29 -47 62 -102 74 -122 l23 -38 -93 0 c-91 0 -92 0
-123 33 -17 19 -54 72 -82 118 -234 387 -277 456 -296 472 -17 15 -43 17 -177
17 -105 1 -163 5 -178 13 -18 10 -93 118 -93 133 0 5 713 11 814 7 47 -1 88
-8 101 -17z m321 8 c44 -21 56 -39 282 -414 108 -181 121 -198 154 -209 18 -7
115 -11 230 -11 116 0 207 -4 218 -10 16 -8 90 -120 90 -136 0 -2 -146 -4
-324 -4 -294 0 -326 2 -344 18 -11 9 -56 76 -100 147 -43 72 -123 202 -177
290 -53 88 -120 195 -147 239 -27 43 -46 82 -41 86 24 23 115 25 159 4z m1224
-6 c217 -39 373 -125 447 -245 66 -107 123 -204 123 -208 0 -3 -155 -5 -345
-5 -344 0 -345 0 -345 -21 0 -58 120 -122 265 -141 101 -14 219 7 265 46 38
31 78 40 149 31 68 -8 91 -27 91 -72 0 -68 -54 -112 -179 -144 -167 -43 -422
-9 -595 78 -80 40 -172 127 -206 193 -13 25 -57 99 -98 165 -61 98 -76 129
-80 170 -4 45 -1 53 24 79 80 80 283 111 484 74z m-2655 -1035 c107 -24 197
-58 320 -122 105 -54 171 -114 180 -164 17 -88 -78 -194 -205 -227 -25 -7
-145 -15 -267 -19 l-221 -6 109 -180 c60 -99 109 -183 109 -188 0 -14 -215 -4
-233 11 -8 7 -55 77 -102 155 -48 78 -98 158 -110 177 -12 19 -66 107 -120
195 -54 88 -122 198 -150 245 -69 112 -77 128 -69 141 4 8 107 10 338 6 283
-4 344 -7 421 -24z m716 -119 c17 -16 39 -42 48 -59 72 -120 327 -535 340
-555 25 -36 81 -136 81 -144 0 -10 -158 -7 -182 5 -14 6 -61 73 -118 166 -52
86 -107 174 -121 197 -75 117 -242 395 -241 403 1 14 45 22 105 19 48 -2 62
-7 88 -32z m829 11 c108 -19 197 -48 284 -93 70 -37 136 -90 136 -111 0 -16
-166 -14 -210 3 -19 8 -59 23 -87 35 -82 33 -181 44 -265 31 -140 -21 -157
-56 -85 -168 24 -37 58 -95 77 -130 39 -75 70 -107 130 -137 64 -32 143 -46
263 -47 138 0 177 19 177 87 0 12 -8 33 -19 46 -18 22 -27 24 -174 29 -183 7
-198 14 -231 106 l-14 42 61 5 c34 3 144 4 244 4 215 -2 198 7 294 -155 54
-91 64 -114 64 -154 0 -38 -5 -52 -29 -77 -67 -70 -220 -102 -392 -82 -277 32
-469 133 -553 290 -17 33 -63 110 -101 172 -58 93 -70 120 -70 155 0 71 58
123 165 150 70 17 234 17 335 -1z m1164 -14 c133 -35 316 -139 324 -184 3 -15
-6 -17 -76 -17 -67 0 -94 6 -171 35 -114 44 -203 57 -296 44 -65 -9 -145 -46
-145 -67 0 -20 69 -56 129 -69 36 -8 133 -20 215 -28 175 -17 255 -35 354 -81
185 -84 277 -214 212 -296 -47 -60 -209 -95 -394 -85 -129 7 -241 34 -342 82
-69 33 -174 116 -174 137 0 7 31 9 93 5 73 -4 109 -12 164 -35 39 -17 104 -35
144 -42 147 -23 294 12 294 70 0 21 -8 28 -55 43 -30 10 -107 25 -170 33 -404
52 -492 82 -637 219 -79 74 -90 113 -48 163 31 37 67 58 145 84 78 26 320 20
434 -11z m1156 -1009 c52 -21 170 -99 170 -114 0 -4 -25 -12 -56 -18 -47 -10
-58 -9 -73 4 -29 27 -89 46 -141 46 -41 0 -56 -5 -77 -26 -22 -22 -24 -31 -19
-67 10 -61 62 -159 113 -212 49 -52 126 -92 196 -101 40 -6 48 -3 71 19 25 25
28 35 30 132 1 29 2 30 51 30 49 0 49 0 61 -40 7 -22 13 -66 13 -97 1 -47 -3
-62 -25 -88 -52 -61 -112 -76 -222 -54 -90 19 -136 40 -215 101 -97 75 -174
194 -202 316 -22 94 0 151 70 183 45 21 186 13 255 -14z m811 -234 c155 -145
302 -281 327 -304 54 -48 50 -64 -18 -64 -64 0 -87 10 -146 61 -69 60 -122 81
-218 86 -113 6 -129 -4 -136 -82 l-5 -60 -51 -3 c-91 -5 -90 -7 -144 314 -26
153 -45 287 -42 297 4 14 16 17 78 17 l74 0 281 -262z m-5354 81 c120 -122
152 -149 175 -149 15 0 28 2 28 4 0 3 -18 53 -40 113 -55 151 -58 169 -28 176
36 10 119 8 160 -4 30 -8 45 -21 72 -64 39 -61 261 -460 272 -489 7 -17 3 -19
-40 -14 -63 7 -98 42 -179 175 -42 70 -68 103 -80 103 -22 0 -21 -8 23 -165
16 -55 26 -103 24 -107 -3 -5 -28 -8 -57 -8 l-52 0 -150 152 c-82 84 -142 140
-132 125 9 -15 47 -68 83 -119 72 -104 79 -135 31 -151 -15 -5 -43 -6 -61 -3
-30 6 -42 20 -115 139 -45 72 -120 192 -166 266 -64 103 -82 138 -73 148 16
20 68 31 116 25 39 -4 54 -16 189 -153z m1408 135 c64 -22 114 -53 159 -100
27 -28 33 -40 24 -46 -27 -17 -88 -7 -159 26 -87 40 -156 53 -183 33 -29 -21
-12 -52 42 -75 26 -11 100 -31 164 -46 65 -14 143 -37 174 -53 133 -65 214
-203 152 -260 -41 -37 -71 -46 -153 -46 -137 -1 -253 45 -341 134 -55 56 -51
69 23 69 33 0 50 -7 85 -36 56 -48 96 -64 155 -64 81 0 122 50 70 85 -12 8
-96 39 -185 70 -89 30 -188 68 -220 84 -63 32 -118 86 -128 125 -8 34 14 76
56 104 32 22 41 24 125 18 50 -3 113 -13 140 -22z m637 -7 c93 -33 154 -71
226 -141 73 -69 122 -146 148 -229 16 -52 17 -62 4 -100 -13 -35 -24 -46 -69
-69 -67 -34 -124 -36 -235 -8 -228 58 -419 248 -433 434 -6 64 -5 66 26 95 18
17 51 35 74 40 64 15 185 5 259 -22z m-1011 -258 c159 -149 289 -275 289 -280
0 -14 -108 -10 -138 5 -15 8 -40 28 -56 45 -43 44 -121 71 -211 71 -91 0 -105
-11 -105 -81 l0 -49 -46 0 c-49 0 -79 11 -87 34 -13 34 -88 509 -83 523 5 13
18 15 77 9 l70 -6 290 -271z m1401 225 c135 -106 350 -264 359 -264 5 0 9 2 9
5 0 12 -65 135 -112 212 -28 45 -47 87 -43 92 3 6 27 11 51 11 56 0 62 -6 153
-155 37 -60 107 -174 154 -251 48 -78 87 -146 87 -152 0 -15 -60 -23 -103 -13
-21 5 -59 26 -85 46 -116 92 -364 275 -372 275 -14 0 -12 -11 9 -45 115 -187
152 -250 154 -258 3 -17 -63 -29 -93 -17 -23 10 -149 204 -342 527 -23 38 -14
44 59 39 46 -2 61 -9 115 -52z m830 45 c56 -12 129 -46 164 -77 11 -9 37 -39
57 -66 46 -60 48 -94 6 -135 -17 -17 -28 -35 -25 -40 4 -5 79 -60 168 -123
l161 -113 -44 -7 c-56 -8 -111 0 -142 21 -14 9 -69 48 -123 87 -55 39 -117 80
-139 91 -56 29 -117 45 -129 33 -6 -6 14 -48 52 -111 34 -56 62 -105 62 -109
0 -4 -21 -11 -46 -15 -33 -5 -52 -2 -68 8 -13 9 -56 69 -96 134 -40 65 -83
134 -95 153 -121 191 -155 250 -155 264 0 14 19 16 170 16 93 0 193 -5 222
-11z m321 -3 c18 -7 68 -40 112 -73 77 -57 164 -113 178 -113 4 0 7 43 7 95 0
108 1 109 96 103 l49 -3 -1 -55 c-1 -30 -5 -107 -9 -170 l-7 -115 65 -108 c36
-59 62 -109 57 -112 -19 -12 -89 -16 -108 -6 -11 6 -39 45 -62 87 -51 93 -141
186 -275 284 -213 156 -245 182 -240 191 9 14 101 11 138 -5z"/>
<path d="M8603 11072 l-53 -7 52 -79 51 -79 146 7 c80 4 176 11 214 15 151 16
118 89 -59 126 -79 16 -276 26 -351 17z"/>
<path d="M9666 11055 c-27 -7 -56 -21 -64 -29 -14 -14 -14 -19 1 -50 31 -66
53 -71 312 -68 126 1 233 6 237 10 4 4 -9 27 -30 50 -56 65 -143 94 -292 98
-78 2 -131 -1 -164 -11z"/>
<path d="M10707 11067 c-60 -14 -110 -44 -115 -69 -1 -7 13 -32 32 -53 l34
-40 239 -4 c283 -4 289 -2 221 72 -36 38 -56 49 -127 71 -101 32 -206 40 -284
23z"/>
<path d="M11320 9955 c-26 -8 -57 -26 -70 -40 -23 -24 -24 -28 -10 -53 9 -15
31 -35 50 -45 31 -16 61 -17 267 -15 127 2 235 7 240 11 4 5 -15 30 -43 57
-39 37 -67 53 -120 70 -89 29 -249 36 -314 15z"/>
<path d="M8440 8915 c0 -10 86 -149 107 -171 22 -23 26 -24 186 -24 90 0 190
5 222 11 66 12 130 41 138 62 16 42 -70 86 -220 112 -80 14 -433 22 -433 10z"/>
<path d="M13283 7792 c-11 -7 5 -124 22 -165 13 -31 62 -49 114 -42 76 10 81
18 41 60 -72 75 -166 153 -177 147z"/>
<path d="M10060 7833 c-49 -25 -52 -70 -11 -157 57 -118 177 -201 309 -214 45
-4 56 -1 77 18 17 16 25 34 25 58 0 49 -64 165 -118 212 -92 81 -215 117 -282
83z"/>
<path d="M8937 7773 c-8 -14 14 -127 29 -150 8 -13 26 -26 40 -29 26 -7 113 2
123 12 7 7 -164 174 -178 174 -5 0 -12 -3 -14 -7z"/>
<path d="M11260 7825 c0 -31 41 -95 70 -110 34 -18 180 -21 211 -5 28 16 23
45 -13 76 -51 43 -90 54 -183 54 -70 0 -85 -3 -85 -15z"/>
<path d="M3930 11071 c-53 -17 -90 -43 -118 -84 -44 -66 -182 -311 -182 -324
0 -7 8 -17 19 -22 27 -15 323 -16 349 -2 14 7 27 31 37 64 21 72 65 276 65
299 0 11 -13 33 -29 49 -24 24 -38 29 -73 28 -24 0 -54 -4 -68 -8z"/>
<path d="M4252 11073 c-38 -7 -50 -42 -71 -203 -24 -180 -27 -232 -17 -248 13
-21 77 -30 444 -63 256 -23 374 -29 400 -23 46 11 76 55 93 132 17 74 13 292
-5 310 -8 8 -140 26 -382 52 -203 21 -385 41 -404 43 -19 2 -45 2 -58 0z"/>
<path d="M5268 10960 c-75 -14 -78 -21 -78 -216 0 -169 1 -174 23 -188 29 -19
167 -52 277 -66 141 -17 435 -38 442 -31 4 3 -23 83 -60 176 -60 150 -74 176
-118 220 -41 43 -61 54 -124 73 -130 38 -270 50 -362 32z"/>
<path d="M3620 10554 c-70 -13 -77 -21 -154 -175 -42 -82 -73 -155 -70 -163 9
-22 24 -25 221 -41 181 -15 220 -20 418 -50 61 -9 170 -15 278 -15 270 0 280
8 281 235 1 139 1 140 -24 151 -35 16 -892 68 -950 58z"/>
<path d="M4753 10465 c-17 -7 -34 -22 -37 -32 -17 -58 -56 -253 -56 -280 0
-43 23 -57 141 -87 113 -29 252 -43 499 -52 214 -7 206 -10 220 83 31 207 42
315 33 324 -7 7 -684 60 -753 59 -8 -1 -29 -7 -47 -15z"/>
<path d="M5703 10383 c-46 -9 -53 -36 -53 -200 0 -211 -26 -194 293 -191 l252
3 -1 52 c-5 173 -298 373 -491 336z"/>
<path d="M3393 10096 c-97 -24 -172 -87 -236 -197 -47 -81 -58 -199 -19 -214
9 -3 78 -13 152 -21 169 -18 640 -64 655 -64 13 0 25 91 45 325 14 156 20 150
-165 164 -258 19 -377 21 -432 7z"/>
<path d="M4173 10053 c-31 -6 -61 -47 -78 -108 -19 -63 -20 -91 -10 -222 5
-78 11 -106 25 -118 19 -17 39 -20 508 -65 409 -39 387 -40 413 11 41 81 59
225 43 343 -10 68 -28 77 -194 92 -76 8 -258 27 -404 44 -146 16 -269 29 -273
29 -4 -1 -18 -4 -30 -6z"/>
<path d="M5245 9940 c-22 -3 -45 -9 -52 -13 -13 -8 -58 -148 -69 -214 -9 -60
12 -134 51 -181 41 -47 108 -78 204 -93 79 -12 505 -8 533 5 9 4 19 15 22 23
16 40 26 216 19 312 -10 134 -13 136 -178 151 -137 13 -470 20 -530 10z"/>
<path d="M6033 9895 c-8 -14 11 -418 22 -462 3 -12 14 -27 24 -33 16 -8 488
-80 528 -80 18 0 10 17 -70 160 -114 203 -220 372 -244 387 -24 16 -156 42
-215 43 -22 0 -40 -6 -45 -15z"/>
<path d="M3750 9533 c-43 -16 -50 -33 -50 -128 l0 -91 117 -49 c64 -28 120
-51 125 -53 18 -8 6 23 -29 70 l-36 50 34 -7 c39 -8 154 -77 244 -145 33 -26
74 -54 91 -63 66 -34 147 -34 192 1 22 17 23 25 27 170 3 134 1 155 -14 174
-17 20 -39 23 -342 49 -355 31 -338 30 -359 22z"/>
<path d="M4568 9433 c-10 -11 -18 -22 -18 -25 0 -3 21 -27 48 -54 27 -29 75
-100 112 -169 75 -138 102 -173 146 -191 45 -19 648 -43 672 -27 19 12 20 54
7 266 -6 96 -9 109 -28 121 -39 25 -552 89 -747 94 -163 4 -176 3 -192 -15z"/>
<path d="M5629 9311 c-16 -16 -29 -35 -29 -41 0 -21 104 -122 165 -161 63 -40
89 -68 124 -136 11 -23 29 -44 38 -47 27 -8 227 -25 316 -27 61 -1 82 2 95 14
21 21 48 209 44 299 -3 52 -7 68 -20 72 -23 7 -594 56 -655 56 -40 0 -54 -5
-78 -29z"/>
<path d="M6505 9235 c-24 -23 -25 -31 -25 -133 0 -133 7 -169 34 -187 20 -13
346 -58 355 -49 9 9 -31 154 -56 203 -47 96 -172 191 -250 191 -23 0 -42 -8
-58 -25z"/>
<path d="M5051 8884 c-19 -15 -31 -35 -31 -49 0 -37 127 -281 156 -300 25 -16
241 -40 273 -30 15 5 148 202 215 317 l28 48 -24 9 c-31 13 -295 31 -457 31
-125 0 -131 -1 -160 -26z"/>
<path d="M6112 8820 c-30 -13 -37 -33 -56 -180 -9 -69 -19 -138 -21 -153 -3
-20 2 -35 19 -51 21 -22 34 -24 162 -30 76 -4 216 -11 309 -17 387 -21 655
-31 671 -25 14 5 16 16 11 60 -16 154 -122 253 -347 324 -161 51 -247 62 -620
77 -58 2 -115 0 -128 -5z"/>
<path d="M6083 8343 c-18 -16 -63 -149 -63 -187 0 -14 7 -13 52 5 88 34 77 6
-21 -51 -49 -30 -88 -57 -85 -61 12 -20 156 -31 302 -25 95 5 152 4 152 -2 0
-15 -65 -38 -175 -61 -118 -25 -162 -39 -192 -58 l-22 -15 19 -37 c10 -21 26
-43 34 -50 17 -14 245 -48 524 -78 143 -15 164 -15 177 -2 13 13 12 45 -5 274
-23 295 -24 300 -47 309 -12 5 -583 56 -624 56 -4 0 -16 -8 -26 -17z"/>
<path d="M6896 8257 c-17 -13 -18 -30 -14 -255 4 -236 4 -242 27 -266 28 -29
134 -57 335 -87 123 -18 426 -38 426 -27 0 6 -91 229 -123 300 -74 165 -235
295 -414 333 -87 19 -213 19 -237 2z"/>
<path d="M6270 7653 c1 -5 7 -19 15 -33 8 -14 14 -48 15 -76 0 -43 -6 -60 -34
-101 l-34 -49 127 -76 126 -76 515 -61 c544 -65 877 -97 887 -88 3 4 -6 53
-20 109 -14 57 -28 129 -32 160 -7 67 -30 100 -87 129 -99 51 -138 56 -848
129 -364 37 -631 51 -630 33z"/>
<path d="M7446 7020 c37 -55 41 -118 14 -195 -19 -55 -19 -66 -8 -132 9 -59
16 -74 32 -80 50 -16 372 -49 390 -40 16 8 18 17 12 65 -3 32 -9 119 -12 195
-5 106 -11 143 -23 159 -14 17 -45 24 -176 44 -88 13 -181 23 -208 24 l-47 0
26 -40z"/>
<path d="M10135 7001 c-44 -3 -90 -12 -102 -19 -25 -14 -30 -45 -37 -259 -4
-126 -3 -142 12 -148 23 -10 283 -6 407 6 55 5 163 11 240 14 341 12 381 19
409 73 8 16 23 67 32 113 15 73 16 92 5 132 -23 81 -20 80 -284 84 -128 2
-315 5 -417 7 -102 2 -221 1 -265 -3z"/>
<path d="M12620 6998 c-100 -7 -129 -13 -144 -28 -25 -25 -52 -307 -31 -329
11 -11 76 -11 411 4 603 25 597 25 614 44 9 9 29 33 44 54 28 37 29 39 22 129
-3 51 -11 97 -17 103 -6 6 -101 10 -262 11 -139 0 -286 5 -327 12 -85 13 -132
13 -310 0z"/>
<path d="M11265 6990 c-32 -12 -40 -28 -68 -130 -36 -131 -50 -211 -40 -219
10 -10 461 6 569 19 44 6 202 10 350 10 197 0 273 3 282 12 17 17 17 262 -1
276 -7 6 -171 14 -432 21 -231 6 -469 13 -530 15 -60 2 -119 0 -130 -4z"/>
<path d="M9250 6985 c-8 -2 -55 -8 -105 -15 -188 -23 -311 -43 -329 -52 -17
-9 -18 -19 -12 -126 13 -233 16 -252 41 -262 22 -8 262 0 565 20 85 5 212 10
281 11 69 0 131 4 137 8 7 4 24 41 38 82 22 59 28 98 32 192 4 107 3 119 -14
132 -16 12 -74 14 -319 14 -165 -1 -307 -3 -315 -4z"/>
<path d="M8031 6950 c-25 -4 -50 -15 -57 -25 -23 -32 -16 -174 16 -329 l11
-56 97 0 c53 0 144 5 202 10 58 6 163 14 233 19 173 12 167 5 167 181 0 178 0
178 -136 196 -100 14 -448 16 -533 4z"/>
<path d="M11769 6554 c-9 -11 -22 -39 -28 -64 -33 -119 -61 -237 -61 -252 0
-35 30 -37 266 -21 126 8 387 16 579 17 193 1 356 5 363 9 15 10 17 249 2 278
-10 18 -24 19 -263 19 -272 1 -711 15 -792 26 -42 5 -53 3 -66 -12z"/>
<path d="M11325 6551 c-105 -5 -136 -10 -162 -26 -18 -10 -33 -27 -33 -36 0
-46 -83 -47 -127 -3 -21 21 -33 24 -104 24 -45 0 -105 -7 -135 -16 -47 -13
-57 -21 -75 -56 -22 -44 -22 -91 0 -178 15 -56 55 -126 81 -140 26 -14 218 3
420 37 121 20 169 33 220 58 99 50 166 109 200 174 28 56 41 135 26 159 -8 13
-69 13 -311 3z"/>
<path d="M7346 6522 c-3 -5 -18 -44 -34 -88 -16 -44 -46 -103 -66 -132 -40
-55 -118 -122 -167 -144 -29 -13 -36 -23 -21 -31 4 -3 186 -31 405 -63 293
-43 403 -55 415 -48 41 27 58 193 33 342 -11 70 -18 86 -39 100 -17 11 -95 26
-221 44 -203 28 -296 34 -305 20z"/>
<path d="M10329 6496 c-2 -2 -80 -7 -174 -10 -93 -3 -206 -9 -250 -11 -353
-22 -422 -28 -448 -41 -27 -15 -28 -16 -24 -99 1 -47 7 -89 12 -94 6 -5 69
-20 140 -35 72 -15 168 -35 215 -46 91 -21 315 -36 605 -42 l170 -3 0 190 0
190 -121 3 c-66 1 -122 1 -125 -2z"/>
<path d="M8195 6439 c-144 -7 -172 -11 -184 -26 -10 -14 -12 -55 -8 -197 3
-98 9 -182 14 -185 4 -4 206 -4 448 -1 l440 6 78 27 c96 33 207 89 228 113 9
11 30 46 48 78 27 49 33 71 35 125 l1 66 -465 1 c-256 1 -541 -3 -635 -7z"/>
<path d="M4653 6339 c-29 -9 -150 -131 -196 -199 -36 -52 -10 -135 55 -177 33
-23 66 -29 257 -54 341 -44 575 -66 866 -81 49 -2 50 -2 53 29 4 43 -17 59
-95 72 -244 42 -402 119 -564 277 -96 93 -146 121 -235 129 -32 3 -70 7 -84 9
-14 2 -39 -1 -57 -5z"/>
<path d="M11428 6101 c-9 -11 -24 -41 -32 -66 -18 -50 -40 -229 -32 -250 6
-16 258 -13 656 6 278 13 261 2 253 162 -4 87 -9 116 -22 130 -16 16 -47 19
-267 27 -137 5 -314 9 -394 10 -132 0 -147 -2 -162 -19z"/>
<path d="M11165 6063 c-379 -13 -1043 -61 -1091 -77 -19 -7 -29 -78 -24 -171
l5 -90 290 2 c160 2 328 8 375 14 47 6 101 12 120 14 60 4 152 26 235 56 111
41 175 101 195 182 7 31 11 59 9 61 -9 8 -48 12 -114 9z"/>
<path d="M7027 6042 c-9 -10 -21 -42 -28 -72 -21 -102 -92 -197 -191 -259 -21
-12 -38 -26 -38 -31 0 -4 28 -13 63 -19 89 -15 604 -63 647 -59 41 3 39 -13
25 223 -8 147 -14 170 -42 179 -16 5 -395 56 -413 56 -4 0 -14 -8 -23 -18z"/>
<path d="M5998 5961 c-197 -49 -236 -68 -217 -103 15 -28 35 -33 318 -89 141
-27 298 -58 349 -68 63 -13 92 -15 92 -7 0 6 -67 80 -148 164 -128 133 -151
152 -177 151 -16 0 -114 -22 -217 -48z"/>
<path d="M7647 5943 c-16 -18 -16 -34 -8 -185 5 -91 12 -171 15 -177 16 -25
68 -40 162 -47 l99 -7 -8 139 c-4 77 -11 164 -15 194 -7 51 -10 56 -46 74 -23
11 -69 21 -110 24 -61 4 -73 2 -89 -15z"/>
<path d="M8529 5921 l-29 -29 0 -140 c0 -142 10 -196 37 -206 22 -9 293 13
327 26 l28 11 -4 168 c-3 118 -8 172 -17 183 -11 13 -39 16 -163 16 l-150 0
-29 -29z"/>
<path d="M8073 5927 c-62 -23 -72 -49 -79 -209 -4 -80 -4 -157 0 -172 l6 -26
190 1 c167 1 191 3 199 17 5 10 11 97 14 194 4 158 3 179 -12 193 -14 12 -44
15 -152 14 -76 0 -148 -6 -166 -12z"/>
<path d="M4640 5822 c0 -6 26 -29 57 -52 43 -30 93 -52 201 -86 79 -25 171
-59 205 -75 63 -30 121 -38 132 -18 10 16 -4 134 -18 153 -9 13 -63 24 -222
46 -282 39 -355 45 -355 32z"/>
<path d="M5383 5749 c-46 -13 -73 -53 -73 -105 0 -24 1 -44 3 -44 1 0 49 20
107 45 142 61 157 60 300 -19 102 -55 115 -66 121 -94 4 -18 12 -38 18 -46 6
-7 62 -38 125 -69 114 -57 186 -116 186 -155 0 -22 -28 -63 -65 -95 l-30 -25
25 -6 c14 -2 68 -10 120 -16 592 -67 862 -76 907 -32 14 15 15 39 10 226 -3
115 -10 213 -16 219 -12 12 -1628 229 -1688 226 -10 0 -32 -5 -50 -10z"/>
<path d="M11290 5690 c-52 -4 -125 -15 -162 -24 -56 -15 -71 -24 -92 -55 -30
-42 -45 -133 -49 -286 l-2 -100 40 1 c335 9 968 45 1008 56 21 7 47 23 58 37
10 14 29 37 40 51 20 23 21 31 14 165 -4 77 -11 145 -16 150 -12 12 -691 16
-839 5z"/>
<path d="M10896 5623 c5 -15 4 -15 -4 -4 -9 13 -32 12 -174 -3 -146 -17 -165
-21 -185 -42 -32 -35 -46 -121 -38 -232 l7 -95 135 7 c207 10 227 27 268 224
15 73 24 139 21 147 -8 22 -37 19 -30 -2z"/>
<path d="M10038 5625 c-11 -12 -9 -367 2 -385 7 -12 26 -12 132 -2 214 21 230
32 247 173 17 133 15 186 -9 199 -24 13 -362 26 -372 15z"/>
<path d="M7217 5509 c-13 -18 -17 -46 -17 -114 0 -138 21 -337 37 -357 17 -19
45 -22 392 -38 209 -11 235 -10 249 4 13 12 16 38 17 113 0 102 -30 302 -50
329 -11 16 -346 67 -526 80 -82 7 -87 6 -102 -17z"/>
<path d="M8325 5459 c-284 -10 -316 -24 -337 -151 -12 -74 1 -241 21 -261 7
-7 43 -7 128 1 65 7 244 20 398 29 235 14 282 20 296 34 24 24 32 106 22 234
l-8 110 -60 6 c-72 8 -206 8 -460 -2z"/>
<path d="M11754 5184 c-7 -3 -72 -10 -145 -17 l-134 -12 2 -80 c1 -63 27 -248
48 -345 2 -8 4 -21 4 -27 1 -17 32 -16 256 7 239 24 465 40 575 40 110 0 130
11 153 80 16 50 17 68 6 195 -8 105 -15 143 -27 153 -12 9 -101 12 -371 11
-196 0 -361 -3 -367 -5z"/>
<path d="M4475 5155 c-44 -15 -90 -29 -102 -32 -13 -3 -23 -10 -23 -15 0 -5
22 -33 48 -61 27 -29 109 -119 182 -202 73 -82 141 -153 150 -156 8 -4 70 -10
135 -14 66 -3 128 -9 138 -11 16 -5 17 10 17 220 0 223 0 226 -22 240 -49 31
-143 48 -293 52 -140 4 -155 2 -230 -21z"/>
<path d="M10171 5150 c-25 -5 -49 -14 -55 -20 -5 -5 -17 -10 -26 -10 -9 0 -24
-8 -33 -18 -15 -16 -17 -49 -17 -255 l0 -237 27 -7 c16 -3 127 -2 248 4 239
11 287 22 306 70 5 13 9 120 9 237 0 182 -2 215 -16 227 -19 16 -375 23 -443
9z"/>
<path d="M10945 5148 c-71 -5 -134 -13 -139 -18 -15 -15 -8 -472 7 -486 16
-16 236 -25 317 -14 129 18 290 47 297 53 10 10 -55 441 -70 465 -10 14 -205
14 -412 0z"/>
<path d="M5100 5102 c-14 -20 -28 -45 -32 -55 -9 -21 67 -374 84 -395 6 -7 19
-17 29 -22 21 -12 329 -50 984 -124 432 -49 491 -54 592 -46 64 4 119 13 128
20 12 10 15 45 15 206 0 106 -4 204 -10 218 -6 17 -21 28 -47 35 -63 17 -814
111 -886 111 -58 0 -75 -5 -144 -41 -43 -23 -96 -51 -118 -62 -29 -16 -58 -21
-110 -21 -77 0 -105 10 -175 69 -44 37 -248 145 -272 145 -7 0 -24 -17 -38
-38z"/>
<path d="M8650 4999 c-52 -5 -143 -10 -201 -13 -247 -12 -376 -42 -429 -102
-34 -39 -34 -31 -5 -239 8 -55 17 -124 20 -153 6 -42 12 -55 29 -61 11 -5 156
-2 321 5 240 11 311 17 355 32 52 18 55 21 77 78 21 53 23 74 23 249 0 135 -4
195 -12 203 -13 13 -32 13 -178 1z"/>
<path d="M6997 4948 c-21 -17 -40 -240 -25 -296 6 -20 7 -60 4 -89 -9 -73 11
-119 61 -140 21 -8 88 -25 148 -36 223 -41 727 -15 760 38 10 16 8 62 -10 233
-11 117 -26 217 -32 223 -7 7 -99 14 -240 20 -282 10 -346 15 -501 40 -145 23
-144 22 -165 7z"/>
<path d="M4685 4524 c8 -19 24 -48 35 -64 11 -15 20 -31 20 -34 0 -11 -37 -6
-74 9 -20 8 -36 12 -36 8 0 -5 16 -34 35 -66 19 -32 35 -63 35 -68 0 -6 5 -7
10 -4 6 3 10 2 10 -2 0 -14 -41 -34 -58 -29 -10 3 -28 24 -42 46 -49 80 -54
36 -9 -97 48 -144 39 -140 377 -168 153 -13 306 -25 342 -27 l65 -3 5 195 5
195 5 -190 5 -190 3 216 c2 200 1 217 -17 233 -23 21 -74 29 -369 57 -198 19
-235 21 -242 9 -5 -8 -7 -17 -4 -21 12 -20 -19 -16 -58 6 -57 33 -61 32 -43
-11z"/>
<path d="M10120 4511 c-62 -16 -65 -19 -80 -58 -8 -23 -18 -44 -21 -48 -4 -3
-132 1 -286 10 -189 10 -289 12 -306 6 -35 -14 -42 -57 -28 -183 19 -165 52
-362 64 -377 12 -14 96 -12 417 10 220 15 668 94 698 123 18 17 46 504 30 523
-17 21 -404 17 -488 -6z"/>
<path d="M10915 4514 c-150 -29 -158 -32 -176 -55 -26 -35 -43 -113 -43 -204
-1 -89 20 -199 40 -216 9 -8 33 -8 86 0 114 18 675 61 786 61 152 0 186 7 206
42 32 53 37 90 30 226 -5 95 -11 138 -21 148 -21 20 -804 19 -908 -2z"/>
<path d="M5528 4486 c-8 -7 -22 -47 -32 -87 -17 -69 -18 -79 -3 -158 22 -113
49 -165 100 -195 41 -23 260 -68 542 -111 130 -20 350 -31 358 -18 7 12 -11
355 -22 398 -8 36 -20 40 -161 54 -58 6 -249 38 -425 71 -176 33 -325 60 -332
60 -6 0 -18 -6 -25 -14z"/>
<path d="M9116 4419 c-61 -5 -107 -16 -147 -34 l-58 -26 -263 3 c-196 2 -282
-1 -336 -11 -40 -8 -75 -18 -78 -23 -3 -4 -20 -8 -37 -8 -50 0 -88 -29 -104
-80 -8 -25 -17 -106 -20 -183 -7 -166 11 -256 53 -276 31 -14 227 -14 515 -1
255 12 667 61 680 81 5 8 7 52 4 99 -3 47 -10 167 -14 267 -5 100 -12 187 -16
192 -7 12 -46 12 -179 0z"/>
<path d="M6554 4370 c-12 -4 -24 -15 -27 -24 -6 -14 28 -275 52 -400 5 -28 17
-56 26 -62 19 -14 186 -55 325 -80 122 -22 345 -31 365 -14 13 11 15 49 15
251 0 236 0 239 -22 253 -14 8 -89 20 -193 30 -203 20 -448 45 -490 51 -16 2
-39 0 -51 -5z"/>
<path d="M7450 4282 c-18 -15 -25 -40 -41 -147 -30 -201 -29 -268 4 -338 36
-73 83 -102 189 -118 104 -15 334 3 360 29 16 15 16 39 11 275 -4 164 -10 263
-17 273 -9 11 -54 18 -186 29 -238 20 -293 19 -320 -3z"/>
<path d="M5023 3933 c-12 -18 -18 -46 -18 -88 0 -51 6 -70 38 -127 41 -73 82
-113 124 -122 48 -10 492 -64 618 -76 67 -6 167 -8 227 -4 103 7 107 8 103 28
-2 12 -7 78 -11 149 -7 145 -15 162 -79 177 -40 10 -889 90 -951 90 -25 0 -38
-7 -51 -27z"/>
<path d="M10866 3929 c-56 -15 -103 -51 -115 -88 -28 -84 -22 -344 9 -375 7
-7 44 -6 123 3 348 39 504 51 622 49 72 -1 139 1 150 5 44 15 60 63 60 182 0
61 -6 136 -14 168 -14 56 -15 57 -50 59 -105 5 -765 2 -785 -3z"/>
<path d="M10304 3830 c-100 -4 -186 -10 -192 -14 -5 -3 -13 -30 -17 -59 -4
-28 -12 -58 -19 -66 -12 -16 -15 -248 -3 -292 4 -15 13 -29 22 -32 8 -4 56 0
107 8 51 7 140 19 198 25 58 6 133 15 166 21 l62 11 6 51 c5 40 -1 80 -23 172
-42 167 -55 189 -111 183 -8 -1 -96 -4 -196 -8z"/>
<path d="M6198 3823 c-27 -7 -29 -28 -12 -166 13 -109 19 -136 37 -154 17 -17
91 -39 324 -97 166 -42 311 -76 321 -76 21 0 19 -10 38 301 7 103 6 107 -15
119 -72 38 -610 95 -693 73z"/>
<path d="M9693 3794 c-121 -14 -206 -35 -265 -65 -33 -17 -47 -18 -130 -9
-117 12 -294 12 -377 0 -56 -8 -70 -14 -103 -48 l-39 -38 10 -120 c5 -65 13
-176 17 -246 l7 -128 -26 0 c-23 0 -28 6 -42 53 -17 62 -61 314 -71 410 -8 81
-11 83 -153 73 -281 -20 -389 -32 -405 -45 -14 -12 -16 -42 -16 -247 0 -198 2
-235 16 -248 19 -19 0 -15 128 -29 l108 -12 -73 -50 c-41 -27 -78 -60 -84 -72
-5 -13 -13 -23 -17 -23 -11 0 -30 -109 -24 -136 6 -24 6 -24 124 -19 477 18
556 23 672 41 52 8 168 18 258 23 89 4 165 10 168 13 3 3 0 58 -5 122 -8 81
-16 122 -28 135 -16 19 -27 20 -260 14 -134 -3 -243 -3 -243 0 0 4 12 13 28
21 29 15 55 19 392 67 118 17 235 35 259 40 72 16 312 50 368 53 85 4 83 -4
83 257 l0 229 -82 -1 c-46 -1 -134 -7 -195 -15z"/>
<path d="M7041 3693 c-63 -52 -61 -275 4 -374 34 -52 89 -74 276 -113 292 -60
650 -99 676 -73 19 19 -7 414 -27 427 -8 5 -44 12 -80 15 -67 7 -251 37 -605
100 -110 19 -205 35 -211 35 -7 0 -21 -8 -33 -17z"/>
<path d="M5086 3524 c-12 -31 -6 -161 14 -299 26 -180 25 -179 52 -193 54 -28
992 -152 1010 -134 7 7 7 34 -1 89 -6 43 -15 143 -20 222 -7 105 -13 148 -24
159 -23 22 -294 80 -437 93 -69 6 -216 27 -328 45 -230 39 -257 40 -266 18z"/>
<path d="M4986 3455 c-5 -24 -15 -39 -31 -47 -15 -6 -25 -22 -29 -43 -7 -37
-31 -61 -99 -100 -31 -18 -62 -47 -87 -85 l-39 -57 172 -21 c95 -11 174 -18
176 -16 3 3 -4 93 -14 201 -20 194 -35 246 -49 168z"/>
<path d="M6209 3348 c-17 -32 -3 -391 17 -433 24 -51 62 -66 196 -77 82 -6
124 -6 131 1 14 14 -20 419 -38 446 -9 14 -47 32 -116 53 -125 39 -173 41
-190 10z"/>
<path d="M10242 3279 c-40 -5 -145 -20 -235 -33 -89 -14 -232 -34 -317 -46
-175 -24 -217 -34 -228 -58 -5 -9 -5 -70 -1 -135 5 -91 10 -123 23 -135 35
-35 505 -24 750 18 180 30 277 42 341 42 32 -1 65 4 72 10 18 14 19 318 1 336
-14 14 -288 15 -406 1z"/>
<path d="M6610 3256 c-9 -12 -7 -55 10 -198 30 -248 32 -255 78 -267 20 -6
138 -22 262 -36 124 -14 272 -32 330 -40 58 -8 108 -15 111 -15 3 0 2 26 -2
58 -5 31 -16 120 -24 197 -9 77 -22 146 -29 153 -7 7 -66 24 -132 38 -65 14
-217 48 -336 75 -240 54 -250 55 -268 35z"/>
<path d="M7484 3069 c-3 -6 6 -94 22 -196 30 -201 36 -215 96 -227 78 -15 187
-6 281 24 127 40 131 46 133 177 3 137 -2 143 -142 167 -54 10 -155 29 -224
42 -142 27 -156 28 -166 13z"/>
</g>
</svg>
